<?xml version="1.0" standalone="no"?>
<!DOCTYPE svg PUBLIC "-//W3C//DTD SVG 20010904//EN"
 "http://www.w3.org/TR/2001/REC-SVG-20010904/DTD/svg10.dtd">
<svg version="1.0" xmlns="http://www.w3.org/2000/svg"
 width="354.000000pt" height="354.000000pt" viewBox="0 0 354.000000 354.000000"
 preserveAspectRatio="xMidYMid meet">
<metadata>
Created by potrace 1.15, written by Peter Selinger 2001-2017
</metadata>
<g transform="translate(0.000000,354.000000) scale(0.100000,-0.100000)"
fill="#000000" stroke="none">
<path d="M10 1765 l0 -1755 1760 0 1760 0 0 1755 0 1755 -1760 0 -1760 0 0
-1755z m560 90 l0 -355 79 0 c70 0 83 3 108 24 l28 24 3 331 3 331 90 0 90 0
-3 -362 -3 -363 -25 -43 c-30 -53 -95 -97 -163 -112 -31 -7 -121 -10 -217 -8
l-165 3 -3 443 -2 442 90 0 90 0 0 -355z m1168 -87 l-3 -443 -85 0 -85 0 -3
358 -2 357 -71 0 c-74 0 -120 -16 -135 -47 -5 -10 -11 -164 -14 -343 l-5 -325
-85 0 -85 0 0 360 c0 345 1 362 21 399 11 22 36 53 56 69 62 50 95 56 306 57
l192 0 -2 -442z m632 357 l0 -85 -96 0 c-96 0 -96 0 -130 -34 -31 -31 -34 -40
-34 -90 l0 -55 108 -3 107 -3 3 -87 3 -88 -111 0 -110 0 0 -72 c0 -104 5 -108
147 -108 l113 0 0 -90 0 -90 -127 0 c-148 0 -190 9 -239 52 -64 56 -64 57 -64
378 0 324 1 330 72 396 61 58 81 63 226 64 l132 0 0 -85z m680 58 c42 -22 60
-38 77 -72 22 -43 23 -51 23 -346 0 -296 0 -303 -23 -346 -17 -32 -37 -50 -72
-69 -48 -24 -58 -25 -262 -28 l-213 -4 0 446 0 446 208 0 c208 0 209 0 262
-27z"/>
<path d="M2750 1770 l0 -270 88 0 c82 0 90 2 113 26 23 25 24 30 27 224 4 277
-3 290 -154 290 l-74 0 0 -270z"/>
</g>
</svg>
